<?xml version="1.0" standalone="no"?>
<!DOCTYPE svg PUBLIC "-//W3C//DTD SVG 20010904//EN"
 "http://www.w3.org/TR/2001/REC-SVG-20010904/DTD/svg10.dtd">
<svg version="1.0" xmlns="http://www.w3.org/2000/svg"
 width="800.000000pt" height="800.000000pt" viewBox="0 0 800.000000 800.000000"
 preserveAspectRatio="xMidYMid meet">

<g transform="translate(0.000000,800.000000) scale(0.100000,-0.100000)"
fill="#000000" stroke="none">
<path d="M0 4000 l0 -4000 4000 0 4000 0 0 4000 0 4000 -4000 0 -4000 0 0
-4000z m4056 2340 c66 -32 112 -112 149 -258 17 -65 17 -74 4 -88 -14 -13 -21
-12 -69 13 -46 24 -66 28 -135 28 -68 0 -88 -4 -137 -29 -73 -37 -93 -31 -84
26 12 72 56 191 89 241 30 45 92 87 126 87 8 0 34 -9 57 -20z m62 -369 c51
-26 136 -106 128 -119 -4 -6 -30 -2 -68 10 -111 36 -281 28 -403 -18 -10 -4
-15 0 -15 12 0 24 78 89 145 121 62 30 148 27 213 -6z m17 -145 c112 -29 121
-45 135 -237 28 -399 19 -2108 -15 -2609 -35 -530 -90 -933 -161 -1176 -68
-237 -132 -219 -203 58 -77 300 -135 820 -162 1453 -16 386 -16 2027 -1 2244
16 221 22 231 132 266 58 18 211 19 275 1z m-471 -1065 c11 -17 7 -870 -3
-889 -16 -30 -33 -33 -200 -33 -145 1 -156 2 -178 23 -19 18 -23 31 -23 83 0
51 4 65 23 83 20 19 36 22 157 24 119 3 135 5 138 21 3 16 -11 17 -184 17
l-187 0 -131 -71 c-72 -40 -165 -90 -206 -112 -41 -22 -298 -159 -570 -304
-272 -146 -504 -273 -515 -284 -14 -14 -16 -22 -8 -30 9 -9 22 -5 55 13 24 14
210 114 413 223 328 175 560 300 821 441 127 69 154 59 154 -58 l0 -63 -749
-377 c-412 -208 -760 -378 -773 -378 -43 0 -48 15 -48 157 0 99 4 142 15 163
18 35 65 73 225 182 204 138 722 493 1235 846 461 317 521 353 539 323z m939
-137 c319 -219 1269 -870 1506 -1032 161 -110 213 -150 225 -176 12 -26 16
-66 16 -168 0 -140 -5 -158 -44 -159 -12 0 -360 170 -773 378 l-753 378 0 63
c0 76 12 102 46 102 14 0 253 -122 532 -272 279 -149 566 -303 637 -341 72
-38 151 -81 177 -95 26 -15 50 -24 53 -20 21 20 -19 50 -173 132 -92 49 -277
149 -412 221 -135 73 -292 157 -350 187 -114 61 -298 160 -424 228 l-80 44
-177 -1 c-98 -1 -183 -4 -189 -8 -8 -5 -8 -11 1 -21 9 -11 42 -14 144 -14 132
0 134 0 154 -26 30 -39 30 -135 -1 -164 -12 -11 -31 -20 -42 -21 -30 -1 -214
-1 -263 0 -30 1 -48 7 -63 23 -19 21 -20 33 -20 453 0 449 1 455 42 455 10 0
114 -66 231 -146z m-1729 -215 c51 -40 35 -68 -79 -147 -64 -44 -83 -50 -103
-30 -17 17 -15 103 3 138 30 59 127 80 179 39z m2386 6 c40 -21 60 -63 60
-129 0 -51 -2 -56 -25 -62 -33 -8 -175 88 -190 130 -8 25 -6 31 18 52 33 28
92 32 137 9z m-2924 -362 c58 -37 38 -80 -72 -154 -58 -39 -81 -49 -100 -45
-22 6 -24 11 -24 75 0 55 4 74 22 96 42 54 117 66 174 28z m3448 13 c18 -7 43
-26 55 -42 19 -24 21 -38 19 -98 -3 -64 -5 -71 -25 -74 -21 -3 -155 78 -180
109 -43 54 -4 108 85 118 7 0 27 -5 46 -13z m-2869 -459 c15 -11 17 -23 13
-66 -6 -57 -30 -91 -79 -111 -83 -35 -190 50 -131 103 25 23 144 86 163 87 8
0 23 -6 34 -13z m2278 -18 c109 -55 134 -97 81 -138 -60 -48 -145 -33 -184 31
-35 58 -20 138 26 138 8 0 43 -14 77 -31z m-2822 -249 c36 -20 16 -100 -33
-132 -60 -39 -158 -24 -158 24 0 34 9 42 85 81 79 41 79 41 106 27z m3366 -27
c53 -26 75 -43 79 -60 9 -35 -1 -50 -41 -63 -91 -30 -209 84 -149 144 22 22
29 21 111 -21z m-1242 -1193 c185 -102 291 -165 302 -179 18 -23 16 -59 -4
-69 -21 -11 -537 59 -571 77 -12 6 -25 22 -28 36 -5 20 10 141 32 257 l5 26
102 -57 c56 -32 129 -73 162 -91z m-704 29 c23 -135 23 -162 2 -188 -16 -19
-51 -26 -293 -60 -181 -25 -281 -35 -292 -29 -25 12 -22 42 5 72 25 28 536
318 551 313 6 -2 18 -50 27 -108z"/>
<path d="M4232 2013 c3 -15 30 -21 158 -40 172 -25 215 -26 215 -3 0 12 -32
20 -145 37 -186 28 -233 29 -228 6z"/>
<path d="M3535 2006 c-115 -17 -140 -24 -143 -38 -5 -24 30 -23 223 5 124 19
150 25 153 40 5 23 -49 21 -233 -7z"/>
</g>
</svg>
